<?xml version="1.0" encoding="utf-8"?>
<!-- Generator: Adobe Illustrator 22.1.0, SVG Export Plug-In . SVG Version: 6.00 Build 0)  -->
<svg version="1.1" id="Layer_1" xmlns="http://www.w3.org/2000/svg" xmlns:xlink="http://www.w3.org/1999/xlink" x="0px" y="0px"
	 viewBox="0 0 611.5 216.6" style="enable-background:new 0 0 611.5 216.6;" xml:space="preserve">
<style type="text/css">
	.st0{fill:none;}
	.st1{fill:#307ABD;}
	.st2{fill:#306BA4;}
	.st3{fill:#3AB778;}
	.st4{fill:#8FC74A;}
	.st5{fill:#D7DF36;}
</style>
<g id="Layer_x0020_1">
	<g id="_2366156812848">
		<g id="Layer_x0020_1_0">
			<g id="_1916240767312">
				<g id="_1916230172800">
					<polygon points="237.4,147.6 251.5,147.6 251.5,71.9 237.4,71.9 					"/>
					<path d="M331.8,138.2c-7.8,7.6-18,11.3-28.9,11.3c-28.1,0-40.1-19.3-40.1-39.1c-0.1-19.8,12.8-39.8,40.1-39.8
						c10.3,0,20,3.9,27.9,11.5l-9.6,9.2c-5-4.8-11.7-7.1-18.3-7.1c-18.2,0-26.1,13.7-26,26.2c0.1,12.6,7.4,25.7,26,25.7
						c6.7,0,14.1-2.8,19.1-7.7L331.8,138.2L331.8,138.2z"/>
					<path d="M387.6,90.1c-2.5-4.4-9.7-8.4-17.9-8.4c-10.6,0-15.8,4.4-15.8,10c0,6.7,7.8,8.4,16.9,9.6c15.9,2,30.5,6.1,30.5,24.2
						c0,16.9-15,24.2-31.8,24.2c-15.4,0-27.4-4.7-33.1-18.5l12-6.2c3.3,8.4,12.1,12,21.3,12c9,0,17.4-3.1,17.4-11.4
						c0-7.1-7.5-10-17.5-11.1c-15.5-2-29.7-6-29.7-22.9c0-15.5,15.3-22,29.4-22.1c11.7,0,23.9,3.3,29.7,15L387.6,90.1L387.6,90.1
						L387.6,90.1z"/>
					<path d="M432.1,84.9H408v-13c21.8,0,40.4,0,62.3,0v13h-24.1v62.7h-14.3L432.1,84.9L432.1,84.9z"/>
				</g>
				<g id="_1916230172928">
					<path d="M252.1,44.9v12.6c0,3.9-2.6,6.3-7.6,6.3c-4.8,0-7.5-2.4-7.5-6.3V44.9c0-0.3,0.3-0.6,1.2-0.6h0.1c0.7,0,1,0.2,1,0.6
						v12.6c0,2.4,2.2,4.1,5.1,4.1c3,0,5.2-1.7,5.2-4.1V44.9c0-0.3,0.3-0.6,1-0.6h0.1C251.8,44.2,252.1,44.6,252.1,44.9z"/>
					<path d="M288.6,45.8c0,0.5-0.6,1.6-0.9,1.6c-0.3,0-1.6-1.3-4.3-1.3c-4.8,0-6.4,2.7-6.4,7.6c0,4.3,1.4,7.8,6.1,7.8
						c1.4,0,2.7-0.1,3.6-0.5v-5.5h-3.2c-0.3,0-0.5-0.2-0.5-0.8v-0.5c0-0.6,0.1-0.8,0.5-0.8h4.8c0.6,0,0.8,0.2,0.8,0.8v7.3
						c0,1.6-3,2-6.1,2c-5.4,0-8.4-3.1-8.4-9.7c0-6.8,3.1-9.9,8.9-9.9C286.1,44.2,288.6,45.1,288.6,45.8L288.6,45.8z"/>
					<path d="M330.5,44.9V63c0,0.5-0.3,0.7-1,0.7h-0.1c-0.7,0-1-0.2-1-0.7V48.2l-0.2,0.1l-5.5,9.4l-0.6,0.5h-1l-0.6-0.5l-5.5-9.7
						l-0.1-0.1v14.9c0,0.5-0.4,0.7-1,0.7h-0.1c-0.7,0-1-0.2-1-0.7v-18c0-0.3,0.3-0.6,1-0.6h1c0.7,0,1,0.2,1.1,0.5l5.2,9l0.7,1.7
						l0.7-1.6l5.2-9.1c0.1-0.2,0.5-0.5,1.2-0.5h0.9C330.2,44.2,330.5,44.6,330.5,44.9z"/>
				</g>
				<polygon class="st0" points="101.1,53.9 0.8,107.8 201.3,215.5 				"/>
				<polygon class="st1" points="201.3,0 101.1,53.9 201.3,215.5 				"/>
				<polygon class="st2" points="101.1,53.9 0.8,107.8 201.3,215.5 				"/>
				<polygon class="st3" points="0,216.6 68.9,107.8 113.9,131.4 				"/>
				<polygon class="st4" points="166.3,158.9 68.9,107.8 158.7,107.8 				"/>
				<polygon class="st5" points="229.3,27.2 68.9,107.8 158.7,107.8 				"/>
				<path d="M482.7,147.1v-6.3c0-2,0.1-3.5,0.5-4.6c0.3-1,0.7-2.1,1.4-2.9c0.7-0.7,1.5-1.4,2.5-2c1-0.6,2.7-1,4.8-1.7l8.3-2.3
					c1.4-0.3,2.4-0.7,3.2-1c0.8-0.5,1.4-0.9,1.6-1.4c0.2-0.2,0.5-0.7,0.5-1.4c0.1-0.6,0.1-1.7,0.1-3.5c0-1.8-0.1-3.1-0.3-3.8
					c-0.2-0.7-0.7-1.2-1.2-1.6c-0.5-0.5-1.5-0.7-2.9-0.8c-1.5-0.1-3.6-0.2-6.2-0.2c-3.5,0-5.8,0.3-6.7,1.1c-1,0.7-1.5,2.4-1.5,5v2.2
					h-4.3v-2.4c0-3.7,0.9-6.2,2.6-7.6c1.7-1.4,5.2-2.1,10.1-2.1c2.7,0,4.9,0.1,6.4,0.1c1.4,0.1,2.6,0.5,3.2,0.7
					c1.7,0.7,3,1.8,3.7,3.1s1,3.5,1,6.7c0,3.5-0.5,5.9-1.6,7.3c-1,1.4-2.9,2.6-5.8,3.2l-10.4,2.9c-2.2,0.7-3.7,1.4-4.3,2.1
					c-0.7,0.7-1,1.8-1,3.2v4.1h22.9v3.9L482.7,147.1L482.7,147.1L482.7,147.1z"/>
				<path id="_1" d="M528.9,143.7h3.2c2,0,3.5-0.1,4.3-0.5c0.9-0.3,1.6-0.7,2.2-1.3c0.6-0.6,1-1.4,1.3-2.3c0.2-0.9,0.3-2.6,0.3-4.8
					v-0.6v-11.7c0-2.4-0.1-4.1-0.3-5c-0.3-0.9-0.7-1.6-1.3-2.2c-0.6-0.7-1.4-1-2.3-1.4c-0.9-0.3-2.3-0.5-4.2-0.5h-3.2
					c-2,0-3.5,0.1-4.3,0.3c-0.9,0.2-1.6,0.7-2.2,1.4c-0.6,0.7-1,1.4-1.1,2.3c-0.2,0.9-0.5,2.5-0.5,5v0.6v11.7c0,2.4,0.1,4,0.5,5
					c0.1,0.9,0.6,1.7,1.1,2.3c0.6,0.6,1.4,1,2.2,1.3C525.5,143.7,526.9,143.7,528.9,143.7z M528.8,147.6c-4.5,0-7.6-0.9-9.3-2.8
					c-1.8-2-2.8-5.2-2.8-9.9v-12.5c0-4.7,0.9-8,2.8-9.9c1.7-1.8,4.8-2.7,9.3-2.7h3.6c4.5,0,7.6,0.9,9.4,2.7c1.7,2,2.6,5.2,2.6,9.9
					v12.5c0,4.7-0.9,8.1-2.6,9.9c-1.8,1.8-5,2.8-9.4,2.8H528.8z"/>
				<polygon id="_2" points="565.8,147.1 565.8,113.9 557.1,122.6 554.7,120.1 564.5,110.2 569.9,110.2 569.9,147.1 				"/>
			</g>
		</g>
		<path d="M584.9,136.3h4.1v2.4c0,2,0.6,3.3,1.7,4c1.1,0.7,3.6,1,7.5,1h1.2c2.1,0,3.6-0.2,4.5-0.5c0.9-0.3,1.7-0.9,2.4-1.6
			c0.4-0.4,0.6-1,0.8-1.6c0.2-0.7,0.3-1.8,0.3-3.5v-0.7v-1c0-1.9-0.1-3.3-0.2-4.2c-0.1-0.9-0.3-1.6-0.6-2.2c-0.5-1-1.4-1.8-2.5-2.2
			c-1.1-0.4-3-0.6-5.6-0.6c-3.3,0-5.6,0.3-6.8,0.8c-1.2,0.5-1.8,1.4-1.9,2.8h-4v-18.8h24.2v3.9h-20.2v10.5c0.7-1,1.7-1.7,2.9-2.1
			c1.2-0.4,3.3-0.6,6.4-0.6c2.7,0,4.7,0.1,6,0.5c1.3,0.3,2.4,0.8,3.3,1.5c1.2,1,2.1,2.2,2.6,3.7c0.5,1.5,0.8,3.9,0.8,7
			c0,3-0.2,5.2-0.6,6.7c-0.4,1.4-1.1,2.6-2,3.5c-1,1-2.3,1.6-3.7,2c-1.4,0.4-3.7,0.6-6.7,0.6c-3.7,0-6.4-0.2-7.9-0.7
			s-2.7-1.2-3.7-2.2c-0.6-0.8-1.1-1.7-1.4-2.7c-0.3-1-0.5-2.1-0.5-3.3V136.3z"/>
	</g>
</g>
</svg>
